<?xml version="1.0" encoding="utf-8"?>
<!-- Generator: Adobe Illustrator 19.2.0, SVG Export Plug-In . SVG Version: 6.00 Build 0)  -->
<svg version="1.1" id="Layer_1" xmlns="http://www.w3.org/2000/svg" xmlns:xlink="http://www.w3.org/1999/xlink" x="0px" y="0px"
	 viewBox="0 0 600 600" style="enable-background:new 0 0 600 600;" xml:space="preserve">
<style type="text/css">
	.st0{fill:#800000;}
</style>
<g>
	<path class="st0" d="M591.3,302.1c-0.2,2.2-0.3,4-0.5,6.1c-0.5,5.9-0.6,11.9-1.2,17.8c-0.8,7-1.7,14-2.8,20.8
		c-1.9,10.9-3.7,21.9-6.2,32.6c-9.6,39.7-29.3,74.3-54.3,106.1c-10.7,13.7-23.1,25.6-35.8,37.2c-2.2,2-2.6,4.2-1.6,6.8
		c2,4.3,3.9,8.8,6.1,13.2c2.3,4.5,3.6,9.3,4.3,14.3c0.9,6.7,2.6,13,7.3,18.2c0.5,0.5,0.8,1.4,0.8,2c0.3,3.9,0.2,7.8-1.4,11.5
		c-0.8,1.7-2,2.6-3.9,2.5c-10.9-0.3-21.7-0.5-32.6-0.8c-2.6,0-4.8-1.7-5.4-4.3c-0.3-1.7-0.5-3.4-0.3-5.1c0.2-3.3,0.8-6.5,0.9-9.8
		c0.2-5.9-4-9-9.5-7.4c-4.7,1.2-8.2-0.3-9.8-4.5c-0.6-1.6-0.3-2.5,1.1-3.6c12.7-9,25.3-18,37.9-27c3.6-2.5,4-4.5,2.3-8.5
		c-0.8-1.9-1.7-3.7-2.5-5.6c-0.9-2.6-1.1-5.3,0.6-7.6c0.9-1.2,0.8-2.5,0.5-3.9c-1.9-7.4-3.6-15.1-5.4-22.5c-2-8.4-4-16.8-6.4-25.1
		c-2-6.8-4.7-13.7-4.3-20.9c0-0.6-0.3-1.2-0.6-1.9c-2.2-4.2-4.3-8.2-6.5-12.3c-2.2-4-4.5-7.8-7.8-10.7c-1.1-0.9-2-2.2-2.8-3.4
		c-3.6-5.6-6.7-11.5-10.7-16.8c-7.9-10.1-16.6-19.7-24.7-29.8c-8.8-10.7-17.4-21.7-26.1-32.6c-1.7-2.2-2.9-4.3-2-7.3
		c0.2-0.6,0-1.4-0.2-2c-0.6-1.4-1.6-2.6-2.3-4c-1.1-1.7-2-3.3-1.1-5.3c2-3.9,1.7-7.8,0.2-11.6c-1.4-3.6-2.5-7.1-3.4-10.7
		c-1.7-7.6-1.1-15.1,2-22.2c1.1-2.5,2.6-3.4,5.1-3.3c9.5,0.6,18.9,0.9,28.4-0.5c13.8-2.2,25.6-8.2,33.7-19.7
		c8.7-12.4,16.4-25.4,24.5-38.3c0.8-1.2,1.2-3.1,1.1-4.7c-0.6-6.2-1.7-12.4-4-18.2c-4.2-10.7-16.4-22-31.5-21.1
		c-5.4,0.3-11,1.1-16.4,1.9c-21.6,3.1-41.4,10.9-59.3,23.4c-21.6,15.1-38.8,33.7-50.1,57.6c-9.8,20.9-13.7,43-14,65.9
		c-0.2,9.6-1.4,19.2-3.6,28.7c-5.6,24.2-16.4,45.8-33.2,64.1c-28.6,31.3-64.1,47.3-106.4,48.3c-9.8,0.2-19.6-1.1-29.2-2.8
		c-2.6-0.5-4.2,0.5-5.3,2.9c-0.3,0.6-0.5,1.2-0.6,1.9c-5,17.7-9.9,35.2-15.1,52.9c-1.1,4-2.3,8.1-3.4,11.6c-1.9-1.6-3.9-3.1-5.6-5
		c-6.8-7.3-14-14.3-20.5-21.9c-9.6-11.3-18.6-23.3-25.8-36.5c-7.3-13.5-14-27.5-20.3-41.6C22.7,389.6,19.1,368,15,346.5
		c-1.2-6.7-2.2-13.3-3.4-19.9c-2.7-11.8-1.4-50.3-1.4-50.3c0.5-4.2,0.5-8.4,1.2-12.4c2.2-11.5,4-23,6.8-34.3
		c8.5-34.6,23.6-66.4,44.4-95.4c13.5-18.9,28.7-36.5,46.5-51.2c8.2-6.8,17.4-12.6,25.9-19.1c27.8-20.8,59.1-34,92.3-43
		c10.7-2.9,21.9-4.2,32.7-6.2c7.3-1.4,14.3-3.9,20.3-8.5c0.9-0.6,2.2-1.1,3.3-1.1c4.3-0.2,8.8-0.2,13.2,0c9.2,0.3,17.8,2.6,25.8,7.3
		c0.9,0.5,2,0.8,3.1,0.8c2.9,0.2,5.9-0.2,8.7,0.3c5.4,0.8,10.7,1.7,16.1,2.8c5.9,1.1,11.9,1.7,17.7,3.3
		c19.6,5.4,38.5,12.4,57.1,20.3c24.4,10.4,45.8,25.8,65.9,42.8c17.7,14.9,32.4,32.7,46.7,51c8.4,10.9,14.7,23,21.3,34.9
		c4.7,8.4,9.6,16.6,12.7,25.8c7.8,23.6,14.7,47.5,18,72.2C590.1,266.6,592,293.1,591.3,302.1z M215.8,274.2L215.8,274.2
		c0.2-9.3,0.3-18.6,0.2-27.9c0-3.9-0.3-7.9-1.2-11.8c-1.4-6.8-5.3-12.7-8.7-18.8c-3.3-5.9-7.1-7.4-13.5-4.8
		c-9.5,3.7-19.4,5.3-29.5,3.7c-5.6-0.8-11-2.2-16.1-4.8c-4.5-2.5-7.4-6.2-8.5-11.3c-0.8-3.9-1.2-7.8-2-11.6c-0.6-3.7-1.6-7.3-1.7-11
		c-0.5-6.8,2.2-12.6,6.7-17.5c4.7-5.1,9-10.6,11.5-17.2c2.2-5.9,6.2-10.2,12.1-12.6c3.7-1.6,7-3.9,9.6-6.8c2.2-2.6,4.3-5.4,6.4-8.2
		c4.2-5.4,8.7-10.6,15.1-13.5c4.3-2,7.3-5.1,9-9.5c1.6-3.7,2.8-7.6,4.2-11.5c2.2-5.7,5.3-10.9,10.7-14.4c3.3-2.2,6.7-3.3,10.4-1.4
		c0.9,0.5,2,0.8,3.1,1.1c3.1,1.1,5.7,2.9,7.4,5.7c2.6,4.2,5.1,8.4,7.8,12.4c1.7,2.6,3.4,5.1,5.1,7.8c0.3,0.5,1.1,0.5,1.6,0.6
		c0.2-0.6,0.2-1.2,0.3-1.9c0-0.2-0.2-0.3-0.2-0.5c-4.3-10.6-5.6-21.4-3.6-32.6c1.4-7.3,3.6-14.4,5.4-21.7c0.8-3.3,1.9-6.4,0.8-9.6
		c-0.3-1.2-0.6-2.5-0.8-3.6c-0.2-1.7-0.9-2.3-2.6-1.9c-7.3,1.9-14.7,3.7-22.2,5.3c-25,5.6-48.9,14.4-71.2,26.7
		c-32.6,17.8-60.4,41.4-83.9,70C52,151.7,34,186.2,23,224.4c-6.2,21.4-9.6,43.1-10.9,65.3c-0.6,12.4-0.5,24.8,1.7,37.1
		c3.1,18.2,9.5,35.4,19.2,51c19.7,31.3,47.2,52,82.2,62.8c7.1,2.2,7.9,1.9,10.4-5.3c1.7-4.8,3.6-9.5,6.8-13.5
		c9.5-11.6,18.8-23.4,28.2-35.1c10.1-12.4,20.3-25,30.4-37.4c5.4-6.7,10.6-13.7,16-20.3c5.7-6.8,8.8-14.4,8.7-23.4
		C215.7,295.3,215.8,284.7,215.8,274.2z M337.3,19.1c1.4,3.3,3.1,6.1,3.9,9.2c1.2,5.4,2,11,2.6,16.6c0.3,4,0.3,8.1-0.2,12.1
		c-0.9,7.4-3.7,14.3-7.3,20.9c-1.7,3.3-3.6,6.4-5.4,9.5c-0.9,1.6-1.6,3.3-0.8,5c1.6,3.3,3.9,5.9,7.6,6.7c8.5,1.9,17.1,3.6,25.6,5.3
		c12.3,2.5,24.4,5.6,35.8,10.4c10.2,4.3,19.2,10.2,25,19.9c3.4,5.7,8.2,9.9,13.7,13.7c3.7,2.5,7.3,5.3,11,7.9
		c0.8,0.5,1.9,0.9,2.8,0.9c8.2,0.3,16.4,1.2,24.5,2.9c26.2,5.6,49.2,17.7,69,35.5c15.8,14.3,27.6,31.3,36.5,50.6
		c0.3,0.6,0.6,1.2,0.9,1.9c0.2,0,0.3-0.2,0.6-0.2c-2.3-9-4.3-18-7-26.8c-12.3-41.7-32.9-78.7-62.2-110.8
		c-14.4-15.8-29.9-30.6-47.9-42.4c-30.7-20.2-64.1-34.9-99.3-45.3c-8.2-2.5-16.6-4.5-25.3-4.2C340.1,18.5,338.7,18.8,337.3,19.1z
		 M437.9,330.5c18.9,0,34.1-15.2,34.1-34.1c0.2-18.9-15.2-34.3-34.4-34.4c-18.6,0-34.1,15.4-34.1,34.3
		C403.4,315.3,418.8,330.5,437.9,330.5z"/>
	<path class="st0" d="M442.8,555.3c-94.3,54.5-216,47-298.4-8.5c0.8-1.4,1.4-2.6,2.2-4c5-8.4,11.6-15.1,18.5-21.7
		c9-8.7,18-17.4,27-26.2c5.6-5.4,10.1-11.6,13.5-18.6c4.2-8.5,10.1-15.7,16.8-22.3c7.9-7.9,15.8-15.8,23.6-23.7c2-2,3.4-2.3,6.2-1.2
		c2.2,0.9,4.3,2,6.5,2.8c4.3,1.6,6.5,0.9,9.5-2.8c2-2.6,4-5.4,6.4-7.8c3.4-3.6,7-7.1,10.6-10.4c6.1-5.4,13-9,20.6-11.6
		c4-1.4,5.6-0.8,7.4,3.1c2.9,6.5,5.7,13,8.7,19.6c1.2,2.9,2.5,5.9,3.7,8.7c1.7,3.7,3.7,4.5,7.3,2.8c3.7-1.7,7.3-3.4,11-5.1
		c4.2-1.9,7.9-1.7,11.6,1.4c6.5,5.4,13.2,10.7,19.9,16c2.8,2.2,3.6,5.4,4.8,8.4c3.6,8.5,6.7,17.1,10.4,25.4c2,4.5,4.5,8.7,7.3,12.7
		c13,18,26.2,36,39.4,54C439.3,549,441,552.1,442.8,555.3z"/>
	<path class="st0" d="M104,518.1c13,10.1,25.8,19.9,38.5,29.6c-1.7,4-2.9,8.2-7.3,10.4c-1.2,0.6-2,2.6-2.5,4.2
		c-1.6,6.2-2.9,12.4-4.3,18.6c-0.3,1.6-1.1,2.5-2.5,2.9c-5.9,2.3-11.6,4.7-17.5,6.7c-1.9,0.6-4.2,0.9-6.2,0.8
		c-9.5-0.5-18.8-1.2-28.2-1.9c-4.5-0.3-5.6-1.6-5.3-6.1c0.2-2.9,1.1-5.3,3.4-7.1c2.2-1.9,4.3-3.6,6.7-5.4c2.2-1.7,3.3-4,3.1-6.8
		c-0.5-5.1,1.7-9.3,4.5-13.3c3.7-5.3,7.3-10.6,10.6-16.3c2.5-4.5,4.2-9.3,6.2-14.1C103.3,519.6,103.6,519,104,518.1z"/>
	<path class="st0" d="M197.4,296.4c-0.2,19.2-14.9,33.8-34.1,33.8c-18.6-0.2-33.5-15.5-33.4-34.3c0.2-18.3,15.5-33.4,33.8-33.4
		C182.6,262.5,197.5,277.6,197.4,296.4z"/>
</g>
</svg>
